<?xml version="1.0" encoding="utf-8"?>
<!-- Generator: Adobe Illustrator 25.4.2, SVG Export Plug-In . SVG Version: 6.00 Build 0)  -->
<svg version="1.1" id="Logo_Qualidy" xmlns="http://www.w3.org/2000/svg" xmlns:xlink="http://www.w3.org/1999/xlink" x="0px"
	 y="0px" viewBox="0 0 499.5 161.2" style="enable-background:new 0 0 499.5 161.2;" xml:space="preserve">
<style type="text/css">
	.st0{clip-path:url(#SVGID_00000054971398517512189260000008174505818797792671_);}
	.st1{fill:#66656A;}
	.st2{fill:#F9B334;}
</style>
<g>
	<defs>
		
			<rect id="SVGID_1_" x="180.6" y="-157.5" transform="matrix(6.123234e-17 -1 1 6.123234e-17 169.1525 330.3816)" width="138.4" height="476.3"/>
	</defs>
	<clipPath id="SVGID_00000127725679081602778960000000282360804828518038_">
		<use xlink:href="#SVGID_1_"  style="overflow:visible;"/>
	</clipPath>
	<g style="clip-path:url(#SVGID_00000127725679081602778960000000282360804828518038_);">
		<path class="st1" d="M158.5,103.5c2.3,0,4.4-0.4,6.3-1.2c1.9-0.8,3.4-1.9,4.7-3.3c1.3-1.4,2.3-3.1,2.9-5.1c0.7-2,1-4.3,1-6.8V48
			h12.1v39.1c0,3.9-0.6,7.5-1.9,10.8c-1.2,3.3-3,6.1-5.4,8.5c-2.3,2.4-5.2,4.3-8.5,5.6c-3.3,1.3-7.1,2-11.3,2c-4.2,0-7.9-0.7-11.3-2
			c-3.3-1.3-6.2-3.2-8.5-5.6c-2.3-2.4-4.1-5.2-5.4-8.5c-1.2-3.3-1.9-6.9-1.9-10.8V48h12.1v39c0,2.5,0.3,4.8,1,6.8
			c0.7,2,1.6,3.7,2.9,5.2c1.3,1.4,2.8,2.5,4.7,3.3C154.1,103.1,156.2,103.5,158.5,103.5z"/>
	</g>
	<g style="clip-path:url(#SVGID_00000127725679081602778960000000282360804828518038_);">
		<path class="st1" d="M253,113.2h-9.4c-1.1,0-1.9-0.3-2.6-0.8c-0.7-0.5-1.2-1.2-1.5-2l-4.9-13.3h-27l-4.9,13.3
			c-0.2,0.7-0.7,1.3-1.4,1.9c-0.7,0.6-1.6,0.9-2.6,0.9h-9.4L215,48h12.4L253,113.2z M210.8,88.6h20.8l-7.9-21.7
			c-0.4-1-0.8-2.1-1.2-3.4c-0.4-1.3-0.9-2.7-1.3-4.3c-0.4,1.5-0.8,3-1.2,4.3c-0.4,1.3-0.8,2.5-1.2,3.5L210.8,88.6z"/>
	</g>
	<g style="clip-path:url(#SVGID_00000127725679081602778960000000282360804828518038_);">
		<path class="st1" d="M271.9,103.2H298v10h-38.3V48h12.1V103.2z"/>
	</g>
	<g style="clip-path:url(#SVGID_00000127725679081602778960000000282360804828518038_);">
		<path class="st1" d="M320.1,113.2h-12.2V48h12.2V113.2z"/>
	</g>
	<g style="clip-path:url(#SVGID_00000127725679081602778960000000282360804828518038_);">
		<path class="st1" d="M392.7,80.6c0,4.8-0.8,9.2-2.4,13.2c-1.6,4-3.8,7.4-6.7,10.3c-2.9,2.9-6.4,5.1-10.4,6.7
			c-4.1,1.6-8.6,2.4-13.5,2.4h-24.9V48h24.9c4.9,0,9.4,0.8,13.5,2.4s7.5,3.9,10.4,6.7c2.9,2.9,5.1,6.3,6.7,10.3
			C391.9,71.4,392.7,75.8,392.7,80.6z M380.3,80.6c0-3.6-0.5-6.8-1.4-9.6s-2.3-5.3-4.1-7.2c-1.8-2-3.9-3.5-6.5-4.5
			c-2.5-1.1-5.4-1.6-8.6-1.6H347v45.9h12.7c3.2,0,6.1-0.5,8.6-1.6c2.5-1.1,4.7-2.6,6.5-4.5c1.8-2,3.1-4.4,4.1-7.2
			S380.3,84.2,380.3,80.6z"/>
	</g>
	<g style="clip-path:url(#SVGID_00000127725679081602778960000000282360804828518038_);">
		<path class="st1" d="M427.6,87.9v25.4h-12.1V87.9L391.7,48h10.7c1.1,0,1.9,0.3,2.5,0.8c0.6,0.5,1.1,1.2,1.6,1.9l12,21.8
			c0.7,1.3,1.3,2.5,1.8,3.7c0.5,1.2,1,2.3,1.4,3.4c0.4-1.1,0.8-2.3,1.3-3.5c0.5-1.2,1.1-2.4,1.8-3.6l11.9-21.8
			c0.3-0.7,0.8-1.3,1.5-1.8c0.7-0.6,1.5-0.9,2.5-0.9h10.7L427.6,87.9z"/>
	</g>
	<g style="clip-path:url(#SVGID_00000127725679081602778960000000282360804828518038_);">
		<g>
			<path class="st1" d="M108.8,107.8c2.1-1.5,4-3.3,5.7-5.2c1.7-2,3.1-4.2,4.2-6.6c1.2-2.4,2-4.9,2.7-7.7c0.6-2.7,0.9-5.6,0.9-8.6
				c0-4.9-0.8-9.4-2.5-13.6c-1.6-4.2-3.9-7.8-6.9-10.8c-3-3-6.5-5.4-10.7-7.2c-4.2-1.7-8.8-2.6-13.8-2.6c-5.1,0-9.7,0.9-13.9,2.6
				c-3.9,1.6-7.2,3.8-10.1,6.5l6.6,10.2c0.6-0.9,1.2-1.7,1.8-2.4c1.8-2,4.1-3.6,6.7-4.7c2.6-1.1,5.6-1.6,8.8-1.6s6.2,0.5,8.8,1.6
				c2.6,1.1,4.8,2.6,6.6,4.7c1.8,2,3.2,4.5,4.2,7.4c1,2.9,1.5,6.2,1.5,9.9c0,3.7-0.5,7-1.5,9.9c-1,2.9-2.4,5.4-4.2,7.4
				c-1.8,2-4,3.6-6.6,4.6c-2.6,1.1-5.6,1.6-8.8,1.6s-6.2-0.5-8.8-1.6c-2.6-1.1-4.9-2.6-6.7-4.6c-0.8-0.9-1.5-1.8-2.1-2.8l-6.7,10.3
				c2.9,2.9,6.4,5.2,10.4,6.8c4.2,1.7,8.8,2.6,13.9,2.6c1.8,0,3.5-0.1,5.2-0.3c1.7-0.2,3.3-0.5,4.8-1l9.8,10.8
				c1,1.1,2.1,1.8,3.3,2.2c1.2,0.4,2.5,0.6,4,0.6h10.3L108.8,107.8z"/>
		</g>
	</g>
	<g style="clip-path:url(#SVGID_00000127725679081602778960000000282360804828518038_);">
		<g>
			<path class="st2" d="M72.1,79.3l-0.6,1l-15.9,24.6l-5-2.4c-0.8-0.4-1.4-0.9-1.8-1.4c-0.4-0.6-0.6-1.2-0.6-1.9
				c0-0.8,0.3-1.7,0.8-2.6l8.8-15.1l1.3-2.2L58,77.5l-9-15.4c-0.5-0.9-0.8-1.8-0.8-2.7c0-1.5,0.8-2.6,2.4-3.3l5-2.4l15.9,24.6
				L72.1,79.3z"/>
		</g>
	</g>
</g>
</svg>
